<?xml version="1.0" encoding="UTF-8"?>
<svg version="1.1" viewBox="0 0 1181 1181" width="1280" height="1280"
    xmlns="http://www.w3.org/2000/svg">
    <path transform="translate(861,335)"
        d="m0 0h60l-1 10-18 86-1 7 8-14 9-11 10-8 16-8 14-4 13-2h33l16 3 13 5 9 7 6 8 4 10 2 10v25l-4 26-7 27-1 2h-61l1-7 7-33 3-19 1-13-2-8-3-3-3-1h-11l-8 4-6 10-6 20-8 37-2 12-1 1h-120l8-33 4-23v-12l-3-7-4-3-10-1-10 4-6 9-5 13-6 25-4 20-1 8h-63l4-23 7-29 3-13-13-1-12 2-8 5-6 9-5 14-8 36h-122l2-12 6-28 3-19v-19l-4-5-2-1h-13l-8 5-6 12-6 21-7 33-2 12-1 1h-115l1-8 53-1 6-28 3-12-52-1 2-14v-11l-3-7-4-2h-12l-8 4-4 5-6 16-7 29-5 27-1 3h-122l5-24-20 6-12 5-11 7-5 6h-61l2-5 6-8 7-7 14-9 17-8 25-8 24-7 16-8 6-5 3-7-1-8-4-4-6-2h-9l-8 2-6 4-4 5-5 12h-61l2-10 5-12 8-11 9-9 13-8 16-6 22-4h42l17 3 12 4 12 7 6 7 4 10v16l6-11 8-11 7-7 11-7 11-5 14-4 14-2h30l17 3 13 5 11 8 7 11 3 12 1 6 8-13 7-9 11-9 16-8 15-4 13-2h31l16 3 11 4 10 6 7 8 5 11 2 10 1 14 10-48 1-3h56l-1 9-2 9v5l9-9 15-10 12-5 14-3h3l-1 10-3 14v4l6-9 8-8 10-6 12-4 15-2 16 1 10 3 9 6 7 8v2h2l1-9 13-62zm-113 86 1 3z"
        fill="#0C693E" />
    <path transform="translate(698,517)"
        d="m0 0h9l-1 25 2 14 4 10 6 9 10 8 11 5 12 3 18 1 14-2 13-4 87 1 2-12 4 2 10 6 14 5 19 3h27l15-3 18-6 19-9 12-8 9-8h1l-1 12-14 93-1 3h-890l8-64 4-27 8 6 12 6 11 3 7 1h20l17-3 15-5h3v5l98-1 1-2 12 4 18 3h33l19-3 18-6 12-6 9-7 7-5 7 9 10 7 10 5 19 5 9 1h32l19-3 16-5 12-6h2l-2 10 90-1 14-67z"
        fill="#B6282F" />
    <path transform="translate(140,546)" d="m0 0h169v7l-1 2h-166l-2-5z" fill="#0C693E" />
    <path transform="translate(720,546)" d="m0 0h157l-1 9h-155l-1-2z" fill="#0C693E" />
    <path transform="translate(720,533)" d="m0 0h65l4 5 6 2 10-1 7-4 2-2h66l-1 8-1 1h-158z"
        fill="#0C693E" />
    <path transform="translate(313,546)" d="m0 0h144l-2 4-4 5h-136z" fill="#0C693E" />
    <path transform="translate(884,546)" d="m0 0h143l-6 9h-135l-3-8z" fill="#0C693E" />
    <path transform="translate(466,546)" d="m0 0h143l-4 7-2 2h-135l-2-4z" fill="#0C693E" />
    <path transform="translate(250,519)" d="m0 0h122v9h-126z" fill="#0C693E" />
    <path transform="translate(244,533)" d="m0 0h128l3 9h-63l-1-3-1 1-37 1h-41l4-3 5-4z"
        fill="#0E6A40" />
    <path transform="translate(821,519)" d="m0 0h122l-1 9h-124z" fill="#0C693E" />
    <path transform="translate(561,519)" d="m0 0h122l-1 9h-61l-1-2-1 2h-61zm60 3 1 2z"
        fill="#0C693E" />
    <path transform="translate(409,519)" d="m0 0h116l-1 9h-118z" fill="#0C693E" />
    <path transform="translate(805,616)"
        d="m0 0h9l4 2 2-2h6l-1 14-2 17-3 6-6 5-3 1h-12l-5-2 1-7 6 3h8l5-5 1-5-5 2h-8l-5-3-3-6v-7l4-8z"
        fill="#FDFDFD" />
    <path transform="translate(472,533)" d="m0 0h52l4 7v2h-64l-1-4-2 2-64 2v-2l6-6z" fill="#0F6B40" />
    <path transform="translate(319,560)" d="m0 0h126l-5 5-4 3h-111l-6-6z" fill="#0C693E" />
    <path transform="translate(889,560)" d="m0 0h126l-5 5-4 3h-111l-6-7z" fill="#0C693E" />
    <path transform="translate(471,560)" d="m0 0h126l-5 5-4 3h-111l-6-7z" fill="#0C693E" />
    <path transform="translate(595,603)"
        d="m0 0h8l-4 39-1 3h-7l-1-2-6 3-8-1-5-5-1-2v-11l4-6 5-4 2-1h9l4 2z" fill="#FDFDFD" />
    <path transform="translate(935,616)" d="m0 0h11l6 4 3 5v8l-3 6-7 6-4 1h-7l-7-3-4-6v-9l4-7 5-4z"
        fill="#FDFDFD" />
    <path transform="translate(416,616)"
        d="m0 0h11l5 3 3 3 1 3v8l-4 8-6 4-4 1h-7l-7-3-3-4-1-3v-7l4-8 5-4z" fill="#FDFDFD" />
    <path transform="translate(219,616)"
        d="m0 0h12l6 4 3 6-1 9-3 5-5 4-6 2-10-1-5-4-2-4v-9l3-6 6-5z" fill="#FDFDFD" />
    <path transform="translate(723,560)" d="m0 0h92v2l-8 6h-80l-4-6z" fill="#0C693E" />
    <path transform="translate(498,616)"
        d="m0 0h10l5 4 1 5-1 15 2 1v4l-5 1-5-2h-2l-5 2-9-1-3-4v-7l4-4 8-3h8l-1-4-2-1h-7l-6 2 1-6z"
        fill="#FDFDFD" />
    <path transform="translate(718,602)"
        d="m0 0 9 1 5 2v6l-7-2h-8l-4 4 2 5 13 5 5 6-1 7-5 6-6 3-4 1h-7l-9-3 1-7 7 3h10l4-4 1-3-1-3-13-5-5-5-1-6 4-6 6-4z"
        fill="#FDFDFD" />
    <path transform="translate(214,561)" d="m0 0h30l-4 4-5 3h-86l-3-4v-2z" fill="#0E6A3F" />
    <path transform="translate(630,616)"
        d="m0 0h11l6 5 1 2v8h-23l2 7 5 2 9-2 5-2-1 7-10 3-10-1-6-5-2-5 1-9 7-8z" fill="#FDFDFD" />
    <path transform="translate(339,616)"
        d="m0 0h11l5 3 2 3v9h-23l3 7 4 2 10-2 4-2v6l-6 3-4 1h-7l-7-3-3-3-1-3v-9l4-7z" fill="#FDFDFD" />
    <path transform="translate(904,573)" d="m0 0h91l-3 2-13 4-11 2-14 1h-13l-19-2-16-5z"
        fill="#0E6A40" />
    <path transform="translate(486,573)" d="m0 0h91l-3 2-13 4-11 2-14 1h-13l-19-2-16-5z"
        fill="#0E6A40" />
    <path transform="translate(760,616)"
        d="m0 0h11l5 3 2 3v9h-23l2 6 5 3 7-1 7-3v6l-6 3-4 1h-7l-7-3-3-3-1-3v-9l4-7z" fill="#FDFDFD" />
    <path transform="translate(334,573)" d="m0 0h91l-3 2-13 4-12 2-13 1h-13l-19-2-14-4z"
        fill="#0F6B40" />
    <path transform="translate(722,519)" d="m0 0h63l-1 9h-63z" fill="#0C693E" />
    <path transform="translate(556,533)" d="m0 0h60l-2 6-2 3h-64l6-7z" fill="#0C693E" />
    <path transform="translate(881,533)" d="m0 0h61l4 7v2h-63l-2-7z" fill="#0C693E" />
    <path transform="translate(974,533)" d="m0 0h60l-2 6-2 3h-64l6-7z" fill="#0C693E" />
    <path transform="translate(620,533)" d="m0 0h61l-2 9h-61l1-8z" fill="#0C693E" />
    <path transform="translate(617,546)" d="m0 0h60l1 2-2 7h-61z" fill="#0C693E" />
    <path transform="translate(979,519)" d="m0 0h61l-3 9h-61z" fill="#0C693E" />
    <path transform="translate(140,533)" d="m0 0h64l6 8-70 1z" fill="#0E6A3F" />
    <path transform="translate(144,519)" d="m0 0h61l-2 8-41 1h-20l1-7z" fill="#0D693F" />
    <path transform="translate(184,602)"
        d="m0 0 8 1 4 1v6h-3l-2-1h-8l-6 5-3 9v9l3 5 3 2h7l6-2-2 7-8 2-8-1-6-4-4-8v-11l3-9 6-7 6-3z"
        fill="#FDFDFD" />
    <path transform="translate(845,616)"
        d="m0 0h7v10l-1 12 1 1h7l3-4 2-13 1-6h7l1 2-3 27h-8l-1-2-6 3-9-1-3-4v-10z" fill="#FDFDFD" />
    <path transform="translate(614,560)" d="m0 0h61l-1 7-1 1h-61z" fill="#0C693E" />
    <path transform="translate(819,560)" d="m0 0h56l-2 8h-56l1-7z" fill="#0C693E" />
    <path transform="translate(980,616)"
        d="m0 0h10l6 2v6l-6-2h-8l-2 1 1 3 14 5 1 1v7l-5 5-6 2-10-1-6-2 1-6 9 3 9-1v-5l-11-2-6-5 1-5 4-4z"
        fill="#FDFDFD" />
    <path transform="translate(733,573)" d="m0 0h65l-4 3-15 5-6 1h-17l-13-3-10-5z" fill="#0D693E" />
    <path transform="translate(274,560)" d="m0 0h34v5l-1 1-50 2h-11v-7z" fill="#0F6A40" />
    <path transform="translate(379,607)"
        d="m0 0h7l-1 9h7l-1 5h-7l-1 16-1 3 6 1 1 4-9 1-5-3v-9l2-13h-5l1-5h5z" fill="#FDFDFD" />
    <path transform="translate(157,573)" d="m0 0h65l-2 2-15 4-6 1h-25l-13-4z" fill="#0E6A3F" />
    <path transform="translate(295,616)" d="m0 0h7l1 3 4-3h6l1 1v5l-8 1-3 3-2 12-1 7h-8z"
        fill="#FDFDFD" />
    <path transform="translate(892,616)" d="m0 0h7l1 3 4-3h6l1 6-8 1-4 4-2 18h-8l1-13z"
        fill="#FDFDFD" />
    <path transform="translate(455,616)" d="m0 0h7l1 3 4-3h6l1 6-8 1-4 4-2 18h-8z" fill="#FDFDFD" />
    <path transform="translate(259,616)" d="m0 0h7l1 3 4-3h6v6l-9 2-2 3-2 16-1 2h-7l1-16z"
        fill="#FDFDFD" />
    <path transform="translate(936,621)" d="m0 0h8l3 3v10l-4 6-7 1-5-4v-9l3-5z" fill="#B6282F" />
    <path transform="translate(417,621)" d="m0 0h8l3 3v10l-4 6-7 1-5-4v-9l4-6z" fill="#B6282F" />
    <path transform="translate(221,621)" d="m0 0h8l3 4v8l-4 7-7 1-5-4v-10l3-5z" fill="#B6282F" />
    <path transform="translate(584,621)" d="m0 0 7 1 2 2-1 11-5 5-6 1-3-3-1-9 4-6z" fill="#B6282F" />
    <path transform="translate(611,573)" d="m0 0h61l-1 4h-60z" fill="#0C693E" />
    <path transform="translate(809,621)" d="m0 0 7 1 1 1v11l-4 5-7 1-4-5v-7l5-6z" fill="#B6282F" />
    <path transform="translate(816,573)" d="m0 0h56l-1 4h-56z" fill="#0D693E" />
    <path transform="translate(246,573)" d="m0 0h63v3l-63 1z" fill="#106B41" />
    <path transform="translate(501,631)" d="m0 0h4v6l-4 4-7-1-1-5 4-3z" fill="#B6282F" />
    <path transform="translate(634,620)" d="m0 0 4 1 2 1v4h-13l2-4z" fill="#B6282F" />
    <path transform="translate(765,620)" d="m0 0 5 2 1 4h-14l4-5z" fill="#B6282F" />
    <path transform="translate(344,620)" d="m0 0 5 2 1 4h-14l4-5z" fill="#B6282F" />
    <path transform="translate(231,541)" d="m0 0" fill="#FDFDFD" />
</svg>