<?xml version="1.0"?>
<svg xmlns="http://www.w3.org/2000/svg" width="206" height="24" viewBox="0 0 206 24">
  <path d="M179.2,24h-8.688V18.194c0-.063.005-.128.005-.194a3.928,3.928,0,0,0-3.724-3.931l-.2-.005h-1.915V24h-8.98V.008h17.525a6,6,0,0,1,0,12,5.991,5.991,0,0,1,5.98,5.8V24ZM164.672,2.763V9.942h1.915a3.936,3.936,0,0,0,3.926-3.937,2.906,2.906,0,0,0-1.165-2.384,4.5,4.5,0,0,0-2.574-.855l-.187,0ZM11.963,24A11.982,11.982,0,0,1,0,12a11.962,11.962,0,1,1,20.421,8.486A11.864,11.864,0,0,1,11.963,24Zm0-22.857A10.84,10.84,0,0,0,1.139,12,10.823,10.823,0,1,0,11.963,1.143ZM79.209,24H70.375L77.246,0h15.61l6.87,24H90.894l-1.128-3.938H80.337L79.209,24ZM85.051,3.595,81.464,16.123h7.174ZM47.021,24H38.188V0h8.833l5.842,12L58.706,0h8.834V24H58.706V12L52.863,24,47.021,12V24ZM206,24H182.512V0H206V3.938H191.346v6.1H206V13.98H191.346v6.081H206V24Zm-68.053,0h-8.833V0H152.6V3.939H137.948v6.1H152.6v3.939H137.948V24Zm-26.572,0h-8.833V.012h16.534a7,7,0,0,1,5.009,11.863A6.926,6.926,0,0,1,119.317,14l-.239,0h-7.7V24Zm.15-21.239v7.18h1.916A3.89,3.89,0,0,0,117.368,6c0-2.149-1.875-3.176-3.733-3.24l-.193,0ZM12.55,18H11.376V14.327l-1.508-.012-.061,0-3.892.01-.091,0a1.772,1.772,0,0,1-1.766-1.848,1.344,1.344,0,0,1,.023-.241A7.013,7.013,0,0,1,6.458,8.113a2.037,2.037,0,0,1,1.188-.388,1.809,1.809,0,0,1,.314.027A1.925,1.925,0,0,1,8.908,6.6a1.378,1.378,0,0,1,.233-.107,8.292,8.292,0,0,1,5.656,0,2.168,2.168,0,0,1,1.155,1.242,1.733,1.733,0,0,1,.388-.044,1.7,1.7,0,0,1,1.039.352A7.59,7.59,0,0,1,19.018,9.97a6.968,6.968,0,0,1,.827,2.266,1.546,1.546,0,0,1,.02.173l0,.068a1.772,1.772,0,0,1-1.747,1.848l-.111,0-3.892-.01-.369.007-1.2.006V18ZM11.963,7.173A7.085,7.085,0,0,0,9.54,7.6L9.5,7.613l-.028.016a.738.738,0,0,0-.328,1.024l.039.061,2.444,4.224a.365.365,0,0,0,.633.051l2.47-4.269a.727.727,0,0,0,.139-.429.738.738,0,0,0-.39-.651L14.4,7.6A7.077,7.077,0,0,0,11.963,7.173Zm4.369,1.7a.6.6,0,0,0-.516.3l-.028.054-1.971,3.446a.3.3,0,0,0-.01.313.293.293,0,0,0,.235.148l4.007.01.053,0a.6.6,0,0,0,.592-.552v-.1a.221.221,0,0,0,0-.058,5.841,5.841,0,0,0-1.829-3.3L16.692,9A.6.6,0,0,0,16.332,8.877Zm-8.738,0a.6.6,0,0,0-.309.085l-.071.05a5.839,5.839,0,0,0-1.978,3.429l0,.032V12.5a.6.6,0,0,0,.574.648l.07,0,3.96-.01h.026a.3.3,0,0,0,.256-.149.3.3,0,0,0,.013-.273L8.137,9.23a.6.6,0,0,0-.543-.352Z" fill="#d81e05"/>
</svg>
