<?xml version="1.0" encoding="UTF-8"?>
<svg version="1.1" viewBox="0 0 2048 849" width="798" height="331"
    xmlns="http://www.w3.org/2000/svg">
    <path transform="translate(1433,120)"
        d="m0 0h561l9 2 9 6 6 8 3 8v566l-4 10-8 9-8 4-4 1h-567l-12-6-7-8-4-10v-565l4-10 7-8 5-4z"
        fill="#009FE5" />
    <path transform="translate(1878,487)"
        d="m0 0h47l18 3 14 4 14 7 10 9 7 12 3 13v14l-3 15-6 18-12 25-14 22-11 16h-2l1-6 10-21 7-21 2-10v-13l-4-8-6-5-9-3-5-1h-30l-38 5-36 6-50 11-49 13-54 17-48 17-30 12-24 10-29 13-26 12-33 17-5 2 1-6 9-19 11-30 8-32 5-28 2-8 23-10 37-14 29-10 43-13 48-12 40-8 44-7 44-5z"
        fill="#FDFDFD" />
    <path transform="translate(450,158)"
        d="m0 0h27l22 3 18 5 16 7 11 6 13 10 13 13 10 14 8 16 4 10 4 15 2 11 1 14v14l-3 23-5 19-8 18-7 11-7 9-9 10-11 9-13 8-14 7-18 6-20 4-8 1h-35l-19-3-17-5-15-6-16-10-10-8-12-12-11-16-9-19-5-17-3-17v-32l4-22 6-18 7-14 8-12 12-14 10-9 15-10 16-8 18-6 20-4zm4 42-9 1-16 6-11 8-10 10-8 13-6 14-3 12-2 11v30l3 17 6 17 7 12 9 10 8 7 10 6 13 4 7 1h17l11-2 14-5 11-7 9-9 8-13 5-11 4-14 2-11 1-12v-11l-2-18-4-16-5-12-8-12-13-13-9-6-12-4-5-2-11-1z"
        fill="#1E1F1D" />
    <path transform="translate(1174,158)"
        d="m0 0h29l25 4 14 4 17 7 14 9 10 8 8 7 10 13 9 15 7 17 5 19 2 17v18l-2 18-5 21-9 21-9 14-11 13-11 10-15 10-15 7-18 6-21 4-7 1h-34l-20-3-18-5-19-9-11-7-11-9-11-11-9-13-11-21-5-17-3-18v-31l3-18 5-18 9-19 11-16 13-14 13-10 14-8 15-7 17-5 17-3zm5 42-15 3-9 4-11 7-11 11-8 13-6 14-4 17-1 9v27l3 16 4 13 7 14 8 10 8 8 14 8 13 4 6 1h18l9-1 13-5 14-9 8-8 9-14 7-18 3-15 1-12v-16l-2-16-4-15-6-14-8-11-4-5h-2v-2l-10-8-12-6-10-3-9-1z"
        fill="#1E1F1D" />
    <path transform="translate(691,160)"
        d="m0 0h35l24 2 18 3 20 6 13 7 12 11 7 11 6 16 3 17v12l-2 13-5 14-9 13-10 9-10 6-10 4 2 6 16 21 20 26 13 17 11 14 21 27v2h-66l-9-11-15-20-14-18-12-16-11-14-16-21v-2h-37v101l-1 1h-60v-252l28-3zm14 39-14 1-5 1v76h39l14-3 12-5 10-9 5-8 2-7v-15l-3-10-6-8-9-6-12-5-13-2z"
        fill="#1F201E" />
    <path transform="translate(1754,385)"
        d="m0 0h79l28 3 23 5 21 7 16 8 12 8 10 8 12 12 10 14 9 17 5 12v5l-4-2-9-8-16-8-10-4-25-6-24-3h-44l-42 2-51 5-52 8-40 8-48 12-37 11-29 10-19 7h-3l-1-51-3-42 3-3 36-9 50-10 38-6 50-6 21-2z"
        fill="#FDFDFD" />
    <path transform="translate(173,160)"
        d="m0 0h29l20 1 24 4 21 7 16 9 13 12 9 14 5 14 2 12v14l-3 15-4 12-8 14-13 13-14 9-14 6-13 4-21 4-10 1h-40l-4-1v92l-1 1h-59l-1-12v-186l1-54 26-3zm8 40-12 2-1 1v80l1 1 8 1h26l15-3 14-6 10-9 4-5 4-10 1-4v-16l-4-11-9-10-10-6-13-4-7-1z"
        fill="#1F201E" />
    <path transform="translate(1194,473)"
        d="m0 0h10l20 2 19 5 16 7 11 7 14 12 11 14 8 16 4 10 4 20v31l-4 20-5 14-7 14-11 14-9 9-15 10-15 7-21 6-13 2h-33l-13-2-11-3-16-6-13-8-10-8-10-10-10-15-8-18-4-16-1-7v-25l2-16 5-17 10-20 11-13 6-7 16-12 18-9 18-5zm1 38-14 2-11 5-10 7-9 11-7 14-4 16-1 7v23l4 18 5 12 7 11 10 9 12 6 5 2 7 1h13l11-2 10-4 11-8 8-10 7-14 4-15 1-7v-24l-3-15-6-15-7-11-10-9-13-7-7-2z"
        fill="#1E1F1D" />
    <path transform="translate(949,475)"
        d="m0 0h30l23 2 16 3 16 5 13 8 7 7 8 14 4 13 1 6v20l-5 15-6 10-5 6-11 8-10 5 6 9 12 15 15 20 12 15 10 13 14 18v3h-58l-10-12-9-12-10-13-13-17-12-16-10-13-27-1v83l-1 1h-53v-210l1-1 31-3zm8 36-7 1v59h32l14-4 9-6 6-7 3-10-1-12-4-8-5-5-8-5-13-3z"
        fill="#1F201E" />
    <path transform="translate(1617,282)"
        d="m0 0h55l48 3 43 5 36 6 25 6 24 9 23 12 14 10 14 12 7 7 9 11 10 14 14 24-1 2-8-7-9-8-18-11-13-6-24-8-27-6-27-4-30-2h-43l-30 1-43 3-55 6-48 7-36 7-11 2-3-9-8-36-9-32v-5l15-3 36-5 33-3z"
        fill="#FDFDFD" />
    <path transform="translate(569,474)"
        d="m0 0 26 1 26 4 16 4 2 1-1 8-9 30-4 1-14-4-17-3-24-1-20 2-17 5-11 6-10 8-6 7-7 14-3 9-1 6v23l4 16 8 15 8 9 10 7 17 7 17 3h26l9-2 1-72 1-10h51l1 7v32l-1 73-8 3-24 5-21 3-11 1h-34l-24-3-21-6-16-7-11-7-13-11-8-9-8-13-5-11-4-13-2-12v-27l4-20 8-19 8-12 11-12 10-9 15-9 18-8 17-5 16-3z"
        fill="#1E1F1D" />
    <path transform="translate(865,476)"
        d="m0 0 2 1v127l-2 19-5 18-9 17-11 12-10 8-8 5-17 6-14 3-8 1h-31l-13-2-15-4-14-6-11-9-8-8-6-9-6-12-5-18-2-15-1-14v-106l1-13h54l1 133 3 16 7 14 7 7 10 5 10 2h13l15-5 8-6 6-10 4-11 2-14 1-131z"
        fill="#1F201E" />
    <path transform="translate(838,162)"
        d="m0 0h218l1 1v43l-2 1h-78v209l-1 1h-60l-1-10v-129l1-71h-78l-1-1v-43z" fill="#20211F" />
    <path transform="translate(276,477)"
        d="m0 0h147l1 1v37l-1 1h-93v45h88v39h-88l1 50h97l1 1v38l-1 1h-152z" fill="#1E1F1D" />
    <path transform="translate(181,473)"
        d="m0 0h13l21 2 15 3 16 5 1 4-10 33-1 2-7-1-17-5-14-2h-23l-12 3-8 6-3 6v9l5 8 10 6 14 6 20 7 16 7 15 8 12 11 6 8 5 11 2 8v16l-2 10-4 10-8 11-9 9-15 9-15 5-12 3-14 2h-33l-27-4-16-5-9-4 8-31 3-9 16 6 16 4 13 2h28l10-3 8-5 4-4 2-6v-7l-4-9-11-8-18-7-12-4-15-6-14-7-13-10-7-7-7-12-3-9-1-7v-8l3-14 6-12 11-12 9-7 14-7 17-5 12-2z"
        fill="#1F201E" />
    <path transform="translate(1442,173)"
        d="m0 0h48l38 2 38 4 43 7 28 6 37 10 36 12 28 11 28 13 27 14 20 12 15 10 14 10 18 14 6 5 1 3-5-2-10-7-17-9-28-11-26-8-25-6-43-7-34-4-39-3h-71l-26 1-31 3-26 3-5-1-7-15-8-18-16-32-8-15z"
        fill="#FDFDFD" />
</svg>