<?xml version="1.0" encoding="UTF-8"?>
<svg version="1.1" viewBox="0 0 1940 800" width="485" height="200"
    xmlns="http://www.w3.org/2000/svg">
    <path transform="translate(1336,193)"
        d="m0 0h175l20 1 3 3 8 12 14 18 10 14 14 18 16 21 21 28 16 21 14 19 12 16 14 18 12 17 7 9 1 7-2 5-3 2-76 1-16 1 2 9 14 19 8 11 42 57 3 6v7l-6 4h-122l-5-5-9-10-14-19-13-18-10-13-12-16-13-19-5-10 1-4 2-1 42-1 12-1 2-1v-6l-8-12-28-38-33-44 1-7 2-5 2-1 63-1-4-10-9-13-13-18-14-18-10-13-14-19-9-9-2-1-10 1-6 4-13 18-8 10-8 11-14 18-13 18-9 14-2 7 26 1 2 1v2l7 1v-3l8-1h12l8 1 5 6-1 6-10 14-8 11-18 24-10 13-20 28-4 6 1 3 4 2 7 1 43 1 5 2-1 5-3 8-8 11-14 19-10 14-12 16-14 19-10 14-7 6-6 1h-119l-4-3v-9l6-10 9-12 8-11 15-20 10-14 13-18 6-10v-6l-7-1-85-1-4-4-1-5 5-9 11-15 13-18 20-28 14-19 10-13 13-18 14-19 13-18 15-20 10-14 11-15 9-12z"
        fill="#1D2F62" />
    <path transform="translate(190,35)"
        d="m0 0h1558l18 2 13 4 14 7 15 10 10 8 11 10 9 11 7 10 9 16 6 15 4 16 2 20v534l-7 1h-1653l-20-2-23-5-19-8-17-9-13-10-15-14-11-14-8-13-8-17-5-20-1-9v-431l4-20 5-13 8-15 12-16 11-12 17-14 18-11 12-5 14-4zm58 11-41 1-26 3-19 5-15 6-15 10-9 7-12 11-11 14-8 14-8 19-4 15-1 31v388l2 14 5 16 9 19 10 14 8 10h2l2 4 11 9 10 7 10 6 20 8 22 4h1660v-525l-3-17-5-13-8-16-12-16-12-13-12-10-13-8-15-7-9-3-22-4-35-1-1204-1-54-1z"
        fill="#1D3162" />
    <path transform="translate(703,414)"
        d="m0 0h8l10 2 12 6 6 8 2 4h3l5-5 7-6 12-6 13-3 13 1 12 4 7 6 7 11 1 4 1 13v83l-1 1h-44l-1-1-1-36v-40l-3-5-5-3h-17l-4 1-1 84h-46l-1-4-1-75-5-5-7-3-9 1-8 2v84h-46l-1-1v-118h46v16l8-6 10-8 13-5z"
        fill="#0B9056" />
    <path transform="translate(237,379)"
        d="m0 0h45l1 1 1 95 5 15 4 6 6 3 5 1h15l9-4 5-6 2-6 1-104 3-1h44l2 1 1 3v18l-1 32 1 2v25l-3 37-8 16-9 10-7 6-12 6-21 5-7 1h-17l-18-3-16-6-9-6-5-4-8-10-5-11-4-15-1-14-1-5v-23l1-4z"
        fill="#0B9056" />
    <path transform="translate(1063,379)"
        d="m0 0h43l1 1 1 156-1 1h-43l-1-1v-14l1-2h-3v2l-8 7-7 6-13 5-5 1h-8l-11-3-10-5-8-9-5-10-3-9-3-18v-18l3-20 5-13 6-9 9-8 15-5h11l15 5 9 6 8 8v2h2zm-20 68-8 5-4 6-1 4v31l3 7 7 6 3 1h8l9-6 2-2 1-9v-32l-6-8-6-3z"
        fill="#0B9056" />
    <path transform="translate(493,414)"
        d="m0 0h7l13 4 10 7 5 7 4 9 1 2 1 93-1 1h-45l-1-1-1-53v-22l-3-6-3-2h-25l-2 2v82h-44l-2-1-1-4v-25l1-2-1-17 1-68 1-2h44l1 3-1 14 4-1 7-8 11-7 11-4z"
        fill="#0B9056" />
    <path transform="translate(900,414)"
        d="m0 0h9l17 3 14 5 8 6 8 8 6 13 2 10 1 18-1 11-2 1h-76l5 10 8 6 6 2 56 1 1 1v10l-4 14-3 3-26 4-12 1h-11l-21-3-15-5-10-6-10-10-8-15-2-6v-38l4-10 6-12 10-10 12-6 15-4zm0 30-6 4-6 7-2 9 1 3h34l1-1v-8l-4-9-6-4-4-1z"
        fill="#0B9056" />
    <path transform="translate(917,189)"
        d="m0 0h21l16 4 9 4 9 6 5 4 7 10 6 13 4 20v18l-4 20-8 16-9 10-12 9-13 5-8 2-10 1h-10l-15-2-14-6-9-7-3-2v-2h-2l-9-14-5-13-2-13v-22l3-15 5-12 6-10 5-6 12-9 11-5zm6 28-10 3-8 6-6 8-4 9-1 5v25l3 10 6 9 7 6 10 4h15l12-6 5-5 6-9 4-13v-18l-4-13-5-8-7-7-10-5z"
        fill="#1D2F62" />
    <path transform="translate(750,193)"
        d="m0 0h42l23 1 10 4 8 6 6 7 7 16v16l-6 17-4 6-9 8-4 2 2 5 8 15 7 14 7 13-1 4-22 2-10-2-6-8-9-17-8-16v-2h-17v43l-4 2-17-1-11-1-1-7v-126zm25 26-1 1v34h27l5-3 4-5 2-6v-8l-3-6-3-3-17-3z"
        fill="#1D2F62" />
    <path transform="translate(524,189)"
        d="m0 0h22l13 2 16 4-1 13-4 14-5 1-20-3h-19l-10 3-10 6-8 9-4 8-1 6v21l3 10 6 9 10 6 14 4h17l5-3 1-4v-8l-2-5-18-1-1-4v-23l3-1 48 1 1 1v67l-9 3-25 5-9 1h-19l-14-3-13-5-11-8-7-7-8-14-4-10-3-15v-12l4-16 6-15 6-10 8-9 10-7 13-6 13-4z"
        fill="#1D2F62" />
    <path transform="translate(602,193)"
        d="m0 0 31 1 1 1 1 88 3 8 9 8 9 3h7l10-4 5-5 4-8 1-5 1-86 1-1 31 1 1 1v82l-2 14-5 13-5 8-4 5-8 6-12 5-7 2-8 1h-18l-16-4-14-9-8-10-6-13-2-8z"
        fill="#1D3062" />
    <path transform="translate(357,193)"
        d="m0 0h53l36 1v27l-3 1h-49l-5-1v24h20l20 1 5 2v25h-46l1 4-1 22h56l1 1v27l-1 1-15 1h-54l-6-1-13-1v-132z"
        fill="#1D3062" />
    <path transform="translate(1051,189)"
        d="m0 0h26l23 5 5 2-3 10-4 16-5 1-17-4-9-1h-9l-12 6-4 4 1 6 5 5 26 10 17 8 10 9 4 6 2 8v18l-4 11-8 10-10 6-11 4-13 2h-14l-15-2-17-4-5-2-1-5 3-12 5-11 9 2 21 5h14l7-4 4-4 1-7-7-6-27-10-13-7-9-8-6-9-2-8v-12l2-8 4-8 9-10 10-6 13-5z"
        fill="#1D2F62" />
    <path transform="translate(282,189)"
        d="m0 0h19l17 3 11 3 1 1-1 16-3 9-1 1h-8l-14-3-8-1h-10l-9 4-6 5v6l2 5 5 2 24 9 16 8 6 4 7 7 4 8 1 3v19l-4 10-7 9-7 6-12 5-15 3h-15l-19-3-19-5-1-3 4-10 2-13 1-2 11 3 21 4h13l10-5 3-5v-5l-5-5-10-4-14-5-16-8-9-7-6-8-3-9v-14l5-16 7-8 8-6 16-6z"
        fill="#1D2F62" />
    <path transform="translate(554,418)" d="m0 0h45l1 5 1 113-1 1h-45l-1-1-1-57v-59z" fill="#0B9056" />
    <path transform="translate(569,369)"
        d="m0 0h18l9 3 5 6 1 3v11l-2 7-5 6-4 1h-29l-5-2-5-7v-19l3-6z" fill="#0B9056" />
    <path transform="translate(632,691)"
        d="m0 0 1 2 5-1 8-1 4 1 6-1v1l40 1h34l21 1h13l8 1 12 1 19 1v1h-332v-2l10-2h11l3 1 2-1 35-2 7 1h28l2-1h62z"
        fill="#122059" />
    <path transform="translate(393,40)"
        d="m0 0h20l13 1v2l9-2h3 14l5 1 2-1 5 1-1 3v-2l-4 3v1l-181-1v-2l8-1v-1l33-1h40z"
        fill="#122059" />
    <path transform="translate(991,693)" d="m0 0h45l30 1 6 2 1 2h-203l2-2 50-1 20-1z" fill="#122059" />
    <path transform="translate(1752,682)"
        d="m0 0h75l1 3 7 3-1 2-4 1-6-2-2 3h-4v2l-5-1h-36-1l-1-2h-2v-2l-10 1-3-1-2-2-6-3z"
        fill="#122059" />
    <path transform="translate(749,681)"
        d="m0 0h250v1l-186 1v2l9 1 3 5-6 1h-31l2-4h-3-3l-1 4-6-1 1-4h-13l4-2h9l2-2-31-1z"
        fill="#0F4C58" />
    <path transform="translate(571,681)"
        d="m0 0h17l9 1-2 2h-3l1 6 1 2-2 1h-23l-2 1-11-2-5-9 1-1h14z" fill="#1D2D62" />
    <path transform="translate(178,692)" d="m0 0h11l8 1h8l5 1 11-1h48l13 1 4 4-80 1-20-2-9-2-1-2z"
        fill="#122359" />
    <path transform="translate(483,682)"
        d="m0 0 10 1h7v1l-5 1h-10l-5 1h-41l-9 2-4 2-5-1-12-1h-7l1-2 6-3 5 2 6-1 2-1 5 1 3-1 5 1 8-1h30z"
        fill="#122059" />
    <path transform="translate(440,322)" d="m0 0h5v5l-1 1-15 1h-20l-7-1v-2l12-2 23-1z"
        fill="#112C59" />
    <path transform="translate(602,194)" d="m0 0h3l-1 24 1 23v12l-1 21-2 4z" fill="#122059" />
    <path transform="translate(307,685)"
        d="m0 0h13l2 1v2h14l2 2-2 3h-9l-6-1v-2l-7-1h-26l-9 1 1-2 10-2z" fill="#122059" />
    <path transform="translate(432,41)" d="m0 0 5 1 1-1h14l5 1 2-1 5 1-1 3v-2l-4 3v1h-13l-17-1-3-2z"
        fill="#112959" />
    <path transform="translate(440,217)" d="m0 0h5v4l-2 1h-41l3-3h8l4-1z" fill="#103F58" />
    <path transform="translate(742,315)" d="m0 0 4 5 5 4h10l7 1 2-1 3 2v2l-3 1-17-1-11-1-1-10z"
        fill="#122659" />
    <path transform="translate(147,43)" d="m0 0 1 2 5-1-3 3-9 2-3 5-6 1-1 3-16 8 2-4 12-9 16-9z"
        fill="#14265A" />
    <path transform="translate(131,66)"
        d="m0 0 5 1-1 3-11 8-12 11-2 3h-2l1-5 3-5h2v-2h2v-2l3-2h3l1-4h4v-2l4-1z" fill="#122459" />
    <path transform="translate(1035,682)" d="m0 0h71v1l-11 1-12 1-8 1-8-2h-32z" fill="#122059" />
    <path transform="translate(842,320)" d="m0 0 4 1 1 5-1 1-22 2-8-2 3-2 14 1 1-2 2 1v-2z"
        fill="#122759" />
    <path transform="translate(429,269)" d="m0 0 5 1v3h-37l-6-1v-1l16-1z" fill="#122059" />
    <path transform="translate(1399,306)" d="m0 0h12l8 1 2 3-9 1h-18l-2-2v-2z" fill="#112F58" />
    <path transform="translate(552,682)" d="m0 0h19l1 5-5 1-4-3-4 2-2 4h6v1h-7l-5-9z" fill="#122059" />
    <path transform="translate(327,212)" d="m0 0h1l-1 7-2 3h-8l-10-3v-1l15-3z" fill="#13265A" />
    <path transform="translate(1051,189)" d="m0 0h26l8 2v1h-15l-4 1-7-1h-8l-5 2-3-2z" fill="#13245A" />
    <path transform="translate(1558,693)" d="m0 0 13 1h1l6 1-1 3h-16v-2h-5l-1 2h-8l2-4z"
        fill="#122059" />
    <path transform="translate(588,681)" d="m0 0h37v1l-21 1-2 3-5-1-2 5h-3l-1-4 1-2 3-1-7-1z"
        fill="#0F5157" />
    <path transform="translate(375,324)" d="m0 0 11 2 3-1h9l3 1v2l-26 1-3-2v-2z" fill="#122059" />
    <path transform="translate(1499,689)" d="m0 0h14l9 1 10 1-1 2h-21l-15-1v-2z" fill="#122059" />
    <path transform="translate(252,41)" d="m0 0 6 1v2l-9 1-1 2h-12l-5-1 2-2 6-1 3-1v2h4l1-2z"
        fill="#103358" />
    <path transform="translate(524,189)" d="m0 0h22l-1 3h-26l1-2z" fill="#15295C" />
    <path transform="translate(357,193)" d="m0 0h16v1l-9 1-6 4-1 16h-1v-20z" fill="#0E6257" />
    <path transform="translate(426,692)" d="m0 0 3 1-3 1v2l2 1-2 1h-11l-1-3z" fill="#122059" />
    <path transform="translate(1015,682)" d="m0 0h18v2l-4 2-13-1z" fill="#122059" />
    <path transform="translate(1597,694)" d="m0 0h6l1 1h5l2-1v2h9l1 2h-20v-2l-4-1z" fill="#122059" />
    <path transform="translate(1686,417)" d="m0 0h5l-1 4-2 1h-14l3-2z" fill="#122059" />
    <path transform="translate(709,194)" d="m0 0h7l1 2-1 10-2-2v-3l-3-1z" fill="#122059" />
    <path transform="translate(428,246)" d="m0 0 5 1v8l-5-1-3-7z" fill="#112258" />
    <path transform="translate(357,321)" d="m0 0 9 3 4 1-1 3-12-1z" fill="#112958" />
    <path transform="translate(528,273)" d="m0 0 7 3 1 3 2 1-9 1z" fill="#112958" />
    <path transform="translate(565,218)" d="m0 0h5l-1 5-10-1-2-2z" fill="#13275A" />
    <path transform="translate(1720,690)" d="m0 0h22v2l-23 1-1-2z" fill="#122059" />
    <path transform="translate(487,694)" d="m0 0h5l3 1 6 1-2 2h-11l-2-1z" fill="#15245B" />
    <path transform="translate(435,194)" d="m0 0h11v6l-6-2z" fill="#122059" />
    <path transform="translate(1087,218)" d="m0 0 11 1-1 4-8-1-3-3z" fill="#13275A" />
    <path transform="translate(375,324)" d="m0 0 10 2 1 2-11 1-3-2v-2z" fill="#112658" />
    <path transform="translate(1099,194)" d="m0 0 6 2-2 7h-3l-1-4-1-3z" fill="#122D59" />
    <path transform="translate(111,641)" d="m0 0h2v2h2l4 5-4 2v-2l-4-1-1-5z" fill="#112959" />
    <path transform="translate(1508,682)" d="m0 0h17l-4 3-5-1-4 2-2-1v-2z" fill="#122059" />
    <path transform="translate(1136,682)" d="m0 0h23l-4 3-11-1-8-1z" fill="#122059" />
    <path transform="translate(146,58)" d="m0 0h6l-3 3-9 5v-3h2v-2h2v-2z" fill="#13295A" />
    <path transform="translate(1518,694)" d="m0 0h8l-2 1 1 3h-11l1-2h3z" fill="#122059" />
    <path transform="translate(267,42)" d="m0 0h5v1l5 1v2h-13z" fill="#122059" />
    <path transform="translate(1551,689)" d="m0 0h4l-1 3h-14l1-2z" fill="#122059" />
    <path transform="translate(529,253)" d="m0 0 14 1v1l-14 3z" fill="#122459" />
</svg>